<?xml version="1.0" encoding="UTF-8"?>
<svg id="Layer_1" data-name="Layer 1" xmlns="http://www.w3.org/2000/svg" xmlns:xlink="http://www.w3.org/1999/xlink" viewBox="0 0 1245.77 1245.77">
  <defs>
    <style>
      .cls-1 {
        fill: url(#linear-gradient-2);
      }

      .cls-2 {
        fill: #fff;
      }

      .cls-3 {
        fill: url(#linear-gradient);
      }

      .cls-4 {
        fill: #231f20;
      }
    </style>
    <linearGradient id="linear-gradient" x1="660.41" y1="588.7" x2="660.41" y2="349.82" gradientUnits="userSpaceOnUse">
      <stop offset=".12" stop-color="#000"/>
      <stop offset=".78" stop-color="#000" stop-opacity="0"/>
    </linearGradient>
    <linearGradient id="linear-gradient-2" x1="863.91" y1="1151.11" x2="863.91" y2="357.68" gradientUnits="userSpaceOnUse">
      <stop offset=".53" stop-color="#fff" stop-opacity=".1"/>
      <stop offset=".64" stop-color="#fff" stop-opacity="0"/>
    </linearGradient>
  </defs>
  <path class="cls-4" d="m1098.64,342.36c0-.27-.01-.53-.03-.8-.08-1.84-.38-3.68-.92-5.52-.06-.2-.12-.39-.16-.52-.23-.71-.49-1.41-.79-2.1l-.38-.84c-.33-.67-.69-1.33-1.07-1.94-.16-.25-.32-.5-.49-.74-.08-.11-.15-.22-.22-.32-.43-.63-.91-1.24-1.38-1.8-.17-.2-.33-.39-.46-.53-.68-.74-1.41-1.45-2.17-2.09-.15-.13-.31-.25-.47-.38-.59-.47-1.22-.92-1.92-1.38-.18-.12-.35-.23-.55-.35-.59-.36-1.21-.69-1.83-.98l-.24-.14-428.44-181.54c-5.59-2.37-12.01-2.38-17.63-.03l-431.52,181.23-.8.35-.15.08c-.65.31-1.28.64-1.88,1l-.15.09c-.14.08-.27.17-.41.26-.65.41-1.29.87-1.9,1.36-.16.13-.33.26-.5.41-.78.65-1.5,1.35-2.13,2.04-.15.17-.3.33-.44.5-.47.55-.93,1.14-1.41,1.81-.09.13-.17.25-.27.39-.17.25-.34.51-.52.8-.3.49-.54.94-.74,1.32l-.35.69c-.41.84-.75,1.71-1.07,2.65l-.2.63c-.23.76-.41,1.5-.55,2.24l-.12.68c-.11.7-.19,1.41-.24,2.14l-.05.4v.78l-9.32,536.07c-.14,7.84,3.7,15.08,10.25,19.37l440.66,288.55.75.52.42.21c.5.29,1.02.57,1.56.83.2.1.4.19.6.28.92.41,1.86.76,2.79,1.04l.12.03c.14.04.28.08.42.12.74.2,1.52.37,2.3.5l.14.02c.19.03.39.06.62.09,1.01.13,1.96.19,2.89.19s1.94-.07,2.97-.2c.27-.04.53-.08.75-.11,2.06-.34,4.06-.96,5.85-1.81.2-.09.39-.18.58-.28.65-.33,1.28-.68,1.89-1.06l.22-.12,432.02-300.33c6.15-4.27,9.78-11.29,9.73-18.78l-3.63-525.01Z"/>
  <polygon class="cls-4" points="1075.96 342.51 648.25 161.29 216.73 342.51 207.41 878.7 648.25 1167.37 1079.59 867.52 1075.96 342.51"/>
  <polyline class="cls-4" points="648.25 1167.37 648.25 606.01 1075.96 342.51"/>
  <line class="cls-4" x1="648.25" y1="606.01" x2="216.73" y2="342.51"/>
  <path class="cls-2" d="m1084.46,342.45s0-.08,0-.12c-.01-.75-.13-1.49-.34-2.23-.02-.08-.05-.15-.07-.23-.11-.33-.23-.66-.38-.98,0-.02-.01-.04-.02-.06-.13-.27-.27-.53-.43-.79-.03-.06-.07-.1-.11-.16-.05-.08-.11-.16-.16-.23-.17-.25-.36-.49-.56-.72-.04-.05-.08-.1-.13-.15-.25-.28-.52-.54-.8-.77-.04-.03-.08-.06-.12-.1-.26-.21-.54-.41-.82-.59-.05-.03-.1-.07-.16-.1-.32-.19-.66-.37-1-.51-.02,0-.04-.02-.06-.03l-427.71-181.23c-2.11-.89-4.49-.9-6.61-.01l-431.52,181.23s-.06.03-.08.04c-.34.15-.67.31-.98.5-.05.03-.09.06-.14.09-.28.17-.54.36-.8.57-.06.04-.11.09-.17.13-.28.24-.55.49-.8.76-.03.03-.06.07-.09.11-.21.23-.4.48-.58.74-.06.08-.12.17-.17.25-.05.07-.1.14-.14.21-.13.21-.24.42-.34.63-.02.03-.04.06-.05.1-.16.33-.29.68-.41,1.02-.02.08-.05.15-.07.23-.1.32-.18.64-.23.96,0,.04-.02.09-.03.13-.06.37-.09.74-.1,1.12,0,.03,0,.06,0,.09l-9.32,536.18c-.05,2.92,1.4,5.66,3.84,7.26l440.75,288.61s0,0,.01,0l.09.06s.05.03.08.04c.29.19.59.35.91.5.06.03.12.06.19.09.34.15.69.29,1.05.39.04.01.09.02.13.03.31.09.63.15.95.21.09.01.18.03.27.04.36.05.72.08,1.09.08s.77-.04,1.14-.09c.09-.01.17-.02.26-.04.78-.13,1.52-.36,2.21-.69.07-.03.13-.06.2-.1.35-.18.69-.37,1.01-.59.01,0,.02-.01.03-.02l431.34-299.85c2.3-1.6,3.67-4.24,3.65-7.04l-3.63-525.01Zm-436.23-171.94l409.23,173.4-409.24,252.12-412.89-252.12,412.89-173.4ZM215.99,874.15l8.98-516.64,414.78,253.27v540.86l-423.76-277.49Zm440.77,276.95v-540.35l410.8-253.08,3.49,505.42-414.3,288.01Z"/>
  <g>
    <path class="cls-2" d="m456.28,292.23c-1.22-4.89-5.08-8.07-11.64-9.12-6.55-1.05-13.93.32-21.96,3.69-48.55,20.39-97.1,40.78-145.64,61.16,33.44,20.42,66.88,40.84,100.31,61.25,35.41,21.62,70.83,43.25,106.24,64.87,5.86,3.58,10.42,5.12,13.7,4.22s4.4-4.01,3.18-8.9c-14.73-59.06-29.46-118.12-44.19-177.18Zm-50.51,124.34c-18.79-24.82-37.58-49.64-56.37-74.46,18.55-5.36,37.1-10.71,55.65-16.07,15.28,36.03,30.57,72.05,45.85,108.08-15.05-5.85-30.09-11.7-45.14-17.55Z"/>
    <path class="cls-2" d="m642.05,367.57c-.22-47.08-.44-94.16-.66-141.23-.04-8.65-2.88-15.07-8.62-18.78-5.7-3.69-12.68-3.65-20.72-.28l-145.65,61.17c16.36,75.04,32.72,150.08,49.08,225.12,14.17,8.65,28.34,17.3,42.51,25.96-4.16-34.44-8.33-68.88-12.49-103.32,7.8-2.72,11.75-4.23,19.75-7.57,18.56,46.77,33.28,94.62,45.86,143.32,10.53,6.43,29.21,23.16,42.5,21.41-15.63-61.77-27.6-123.78-47.25-184.56,12.17-6.64,23.97-13.85,35.7-21.24Zm-102.1,2.71l-9.72-80.39c18.55-5.36,37.1-10.71,55.65-16.07,1.22,22.63,2.44,45.26,3.65,67.89-16.2,10.2-32.6,19.73-49.59,28.57Z"/>
    <path class="cls-2" d="m820.66,269.9c-4.88-6.08-11.42-11.01-19.45-14.41-38.8-16.44-77.6-32.88-116.4-49.32-8.03-3.4-15-3.4-20.7.39-5.67,3.77-8.48,10.26-8.53,18.98-.6,105.42-1.2,210.84-1.81,316.26-.05,8.72,2.02,15.17,6.09,18.77,4.05,3.57,9.05,3.37,14.9-.23,28.27-17.42,56.54-34.83,84.81-52.25,5.85-3.6,11.21-8.7,16.15-14.93,4.97-6.26,8.07-11.84,9.21-17.06,13.77-63.12,27.54-126.24,41.31-189.37,1.14-5.22-.68-10.74-5.58-16.84Zm-76.63,204.91c-15.01,5.89-30.02,11.77-45.04,17.66,3.99-73.05,7.98-146.1,11.97-219.16,18.52,5.4,37.04,10.8,55.57,16.2-7.5,61.77-15,123.53-22.5,185.3Z"/>
    <path class="cls-2" d="m1008.53,346.03c-4.06-3.42-10.18-7.01-18.21-10.41-48.48-20.54-96.97-41.09-145.45-61.63-17.83,71.5-35.66,143-53.49,214.5,14.14-8.71,28.27-17.42,42.41-26.13,8.66-20.46,17.32-40.92,25.98-61.38,36.98-13.5,74.23-21.42,113.47-24.53,12.62-7.77,25.23-15.54,37.85-23.32,2.32-1.43,1.5-3.69-2.55-7.11Zm-79.15,19.62c-19.48,1.25-38.99,3.83-58.06,8.05,6.74-15.92,13.48-31.84,20.21-47.76,18.52,5.4,37.05,10.8,55.57,16.2-5.91,7.84-11.81,15.68-17.72,23.52Z"/>
  </g>
  <g>
    <path class="cls-2" d="m238.68,857.92c-5.62-11.57-8.37-22.87-8.26-33.91l3.77-394.52c.1-10.73,2.99-18.21,8.67-22.47,5.75-4.22,12.62-3.94,20.63.85l117.91,70.49c8.25,4.93,15.3,13,21.16,24.22,5.87,11.33,8.79,22.49,8.75,33.48l-.33,100.12-60.27,2.93.53-99.44-59.11-35.88-2.38,318.19,59.77,38.51.33-60.74,60.61-2.06-.46,142.87c-.04,11.32-3.06,19.05-9.08,23.19-6.01,4.05-13.21,3.32-21.6-2.16l-119.87-78.36c-8.14-5.32-15.06-13.76-20.76-25.31Z"/>
    <path class="cls-2" d="m443.38,991.46c-5.95-11.98-8.91-23.64-8.88-34.99l1.07-445.72,60.94,36.43-.1,407.95,62.69,40.39-.8-411.39,62.67,37.47,1.9,457.13c.05,11.65-3.05,19.57-9.31,23.76-6.25,4.09-13.77,3.25-22.58-2.51l-125.75-82.21c-8.54-5.58-15.82-14.35-21.85-26.31Z"/>
  </g>
  <g>
    <path class="cls-2" d="m672.61,623.67l164.78-95.4c8.85-5.13,16.41-5.74,22.69-1.86,6.26,3.96,9.4,11.28,9.42,21.96l.31,174.69-32.07,39.15,32.11-19.76.35,194.77c.02,10.76-3.1,22-9.36,33.73-6.28,11.67-13.85,20.4-22.74,26.2l-165.48,107.86v-481.36Zm132.74,99.52l-.12-97.97-65.64,38.8.08,138.73,65.67-79.56Zm.09,78.53l-65.72,80.44.06,99.39,65.82-42.1-.16-137.72Z"/>
    <path class="cls-2" d="m898.08,493.13l153.86-89.08.26,75.19-91.45,54.05.35,133.87,91.36-112.63.26,75.4-91.42,113.85.25,95.9,91.69-58.65.26,75.71-154.46,100.68-.95-464.31Z"/>
  </g>
  <path class="cls-3" d="m263.34,349.82h794.13s-384.89,231.22-397.06,238.72-397.06-238.72-397.06-238.72Z"/>
  <polygon class="cls-1" points="656.76 1151.11 1067.56 357.68 1071.06 863.1 656.76 1151.11"/>
</svg>