<?xml version="1.0" encoding="UTF-8"?>
<svg id="Layer_1" data-name="Layer 1" xmlns="http://www.w3.org/2000/svg" viewBox="0 0 2048 2048">
  <defs>
    <style>
      .cls-1 {
        stroke-width: 50px;
      }

      .cls-1, .cls-2 {
        stroke: #fff;
      }

      .cls-1, .cls-2, .cls-3 {
        stroke-linecap: round;
        stroke-linejoin: round;
      }

      .cls-1, .cls-3 {
        fill: none;
      }

      .cls-2 {
        fill: #231f20;
        stroke-width: 8px;
      }

      .cls-3 {
        stroke: #231f20;
        stroke-width: 42px;
      }
    </style>
  </defs>
  <polygon class="cls-2" points="1421.61 1096.35 993.91 915.13 562.38 1096.35 553.06 1632.54 993.91 1921.22 1425.24 1621.36 1421.61 1096.35"/>
  <polyline class="cls-2" points="993.91 1921.22 993.91 1359.85 1421.61 1096.35"/>
  <line class="cls-2" x1="993.91" y1="1359.85" x2="562.38" y2="1096.35"/>
  <g>
    <path class="cls-1" d="m1473,618.34v1019.88l-479.09,327.78-488.5-317.91m167.83-1077.8V250.17m-167.83,129.88v-164.72m167.83,653.45v-164.72m799.77-217.18v-164.72m-479.09,546.62v-164.72m344.42-281.03v-184.92m-176.12,550.63V231m176.12,706.4v-413.35m-505.55,203.44v-157.21m0-182.07v-157.21m161.14,293.05V95.16m-488.5,465.41v1087.51"/>
    <path class="cls-3" d="m1473,618.34v1019.88l-479.09,327.78-488.5-317.91m167.83-1077.8V250.17m-167.83,129.88v-164.72m167.83,653.45v-164.72m799.77-217.18v-164.72m-479.09,546.62v-164.72m344.42-281.03v-184.92m-176.12,550.63V231m176.12,706.4v-413.35m-505.55,203.44v-157.21m0-182.07v-157.21m161.14,293.05V95.16m-488.5,465.41v1087.51"/>
  </g>
</svg>